#tb 0: 1/25
0,          0,          0,        1,   518400, 0xf6b83a0e
0,          1,          1,        1,   518400, 0xc5e8b8ee
0,          2,          2,        1,   518400, 0xb3bc6e43
0,          3,          3,        1,   518400, 0x5b08dc73
0,          4,          4,        1,   518400, 0x4a7f7690
0,          5,          5,        1,   518400, 0x8a9f4275
0,          6,          6,        1,   518400, 0xc7cb92fd
0,          7,          7,        1,   518400, 0xc721e231
0,          8,          8,        1,   518400, 0xfb31371b
0,          9,          9,        1,   518400, 0xac57f5d9
0,         10,         10,        1,   518400, 0x92b7debc
0,         11,         11,        1,   518400, 0xfe3e533e
0,         12,         12,        1,   518400, 0x1b3a7a72
0,         13,         13,        1,   518400, 0x98df2d81
0,         14,         14,        1,   518400, 0xe0ce9c52
0,         15,         15,        1,   518400, 0x6a31166d
0,         16,         16,        1,   518400, 0x64ffd4d2
0,         17,         17,        1,   518400, 0x3ec062ef
0,         18,         18,        1,   518400, 0x3480fae1
0,         19,         19,        1,   518400, 0xa87ae4b7
0,         20,         20,        1,   518400, 0xd301319f
0,         21,         21,        1,   518400, 0xa9284989
0,         22,         22,        1,   518400, 0x3de73b50
0,         23,         23,        1,   518400, 0x30a79f84
0,         24,         24,        1,   518400, 0x7d5152d4
0,         25,         25,        1,   518400, 0x25514095
0,         26,         26,        1,   518400, 0x1749a05f
0,         27,         27,        1,   518400, 0x598139a7
0,         28,         28,        1,   518400, 0x3cece862
0,         29,         29,        1,   518400, 0xe1c27efe
